<?xml version="1.0" encoding="UTF-8" standalone="no"?>
<!DOCTYPE svg PUBLIC "-//W3C//DTD SVG 1.1//EN" "http://www.w3.org/Graphics/SVG/1.1/DTD/svg11.dtd">
<svg width="200px" height="109px" version="1.1" xmlns="http://www.w3.org/2000/svg" xmlns:xlink="http://www.w3.org/1999/xlink" xml:space="preserve" xmlns:serif="http://www.serif.com/" style="fill-rule:evenodd;clip-rule:evenodd;stroke-linejoin:round;stroke-miterlimit:2;">
    <rect id="client-icon" x="0" y="0" width="200" height="108.248" style="fill:none;"/>
    <path d="M192.162,5.35L46.021,5.35L8.101,102.898L154.242,102.898L192.162,5.35Z" style="fill:rgb(250,250,255);"/>
    <path d="M154.926,103.898L193.623,4.35L45.337,4.35L6.639,103.898L154.926,103.898ZM192.162,5.35L46.021,5.35L8.101,102.898L154.242,102.898L192.162,5.35Z" style="fill:rgb(77,77,77);"/>
    <path d="M71.723,14.16C79.789,14.16 83.577,21.26 80.177,30.006C76.777,38.752 67.469,45.852 59.403,45.852C51.337,45.852 47.549,38.752 50.949,30.006C54.349,21.26 63.657,14.16 71.723,14.16Z" style="fill:rgb(139,255,0);"/>
    <path d="M71.723,13.16C63.309,13.16 53.563,20.52 50.017,29.644C48.191,34.342 48.35,38.598 49.994,41.679C51.686,44.851 54.943,46.852 59.403,46.852C67.817,46.852 77.563,39.492 81.109,30.368C82.935,25.67 82.776,21.414 81.132,18.333C79.439,15.161 76.183,13.16 71.723,13.16ZM71.723,14.16C79.789,14.16 83.577,21.26 80.177,30.006C76.777,38.752 67.469,45.852 59.403,45.852C51.337,45.852 47.549,38.752 50.949,30.006C54.349,21.26 63.657,14.16 71.723,14.16Z" style="fill:rgb(77,77,77);"/>
    <path d="M54.763,57.788C62.829,57.788 66.617,64.888 63.217,73.634C59.818,82.38 50.509,89.48 42.443,89.48C34.378,89.48 30.589,82.38 33.989,73.634C37.389,64.888 46.697,57.788 54.763,57.788Z" style="fill:rgb(139,255,0);"/>
    <path d="M54.763,56.788C46.349,56.788 36.604,64.148 33.057,73.272C31.231,77.97 31.39,82.226 33.034,85.307C34.727,88.479 37.983,90.48 42.443,90.48C50.857,90.48 60.603,83.12 64.149,73.996C65.976,69.298 65.816,65.042 64.172,61.961C62.48,58.789 59.223,56.788 54.763,56.788ZM54.763,57.788C62.829,57.788 66.617,64.888 63.217,73.634C59.818,82.38 50.509,89.48 42.443,89.48C34.378,89.48 30.589,82.38 33.989,73.634C37.389,64.888 46.697,57.788 54.763,57.788Z" style="fill:rgb(77,77,77);"/>
    <path d="M115.996,14.16C124.062,14.16 127.85,21.26 124.45,30.006C121.051,38.752 111.742,45.852 103.676,45.852C95.611,45.852 91.823,38.752 95.222,30.006C98.622,21.26 107.931,14.16 115.996,14.16Z" style="fill:rgb(139,255,0);"/>
    <path d="M115.996,13.16C107.582,13.16 97.837,20.52 94.29,29.644C92.464,34.342 92.624,38.598 94.268,41.679C95.96,44.851 99.217,46.852 103.676,46.852C112.09,46.852 121.836,39.492 125.383,30.368C127.209,25.67 127.049,21.414 125.405,18.333C123.713,15.161 120.456,13.16 115.996,13.16ZM115.996,14.16C124.062,14.16 127.85,21.26 124.45,30.006C121.051,38.752 111.742,45.852 103.676,45.852C95.611,45.852 91.823,38.752 95.222,30.006C98.622,21.26 107.931,14.16 115.996,14.16Z" style="fill:rgb(77,77,77);"/>
    <path d="M99.037,57.788C107.102,57.788 110.89,64.888 107.491,73.634C104.091,82.38 94.782,89.48 86.717,89.48C78.651,89.48 74.863,82.38 78.263,73.634C81.662,64.888 90.971,57.788 99.037,57.788Z" style="fill:rgb(139,255,0);"/>
    <path d="M99.037,56.788C90.623,56.788 80.877,64.148 77.331,73.272C75.504,77.97 75.664,82.226 77.308,85.307C79,88.479 82.257,90.48 86.717,90.48C95.131,90.48 104.876,83.12 108.423,73.996C110.249,69.298 110.09,65.042 108.445,61.961C106.753,58.789 103.496,56.788 99.037,56.788ZM99.037,57.788C107.102,57.788 110.89,64.888 107.491,73.634C104.091,82.38 94.782,89.48 86.717,89.48C78.651,89.48 74.863,82.38 78.263,73.634C81.662,64.888 90.971,57.788 99.037,57.788Z" style="fill:rgb(77,77,77);"/>
    <path d="M160.27,14.16C168.335,14.16 172.124,21.26 168.724,30.006C165.324,38.752 156.016,45.852 147.95,45.852C139.884,45.852 136.096,38.752 139.496,30.006C142.896,21.26 152.204,14.16 160.27,14.16Z" style="fill:rgb(139,255,0);"/>
    <path d="M160.27,13.16C151.856,13.16 142.11,20.52 138.564,29.644C136.737,34.342 136.897,38.598 138.541,41.679C140.233,44.851 143.49,46.852 147.95,46.852C156.364,46.852 166.109,39.492 169.656,30.368C171.482,25.67 171.323,21.414 169.679,18.333C167.986,15.161 164.73,13.16 160.27,13.16ZM160.27,14.16C168.335,14.16 172.124,21.26 168.724,30.006C165.324,38.752 156.016,45.852 147.95,45.852C139.884,45.852 136.096,38.752 139.496,30.006C142.896,21.26 152.204,14.16 160.27,14.16Z" style="fill:rgb(77,77,77);"/>
    <path d="M143.31,57.788C151.376,57.788 155.164,64.888 151.764,73.634C148.364,82.38 139.056,89.48 130.99,89.48C122.924,89.48 119.136,82.38 122.536,73.634C125.936,64.888 135.244,57.788 143.31,57.788Z" style="fill:rgb(139,255,0);"/>
    <path d="M143.31,56.788C134.896,56.788 125.15,64.148 121.604,73.272C119.778,77.97 119.937,82.226 121.581,85.307C123.274,88.479 126.53,90.48 130.99,90.48C139.404,90.48 149.15,83.12 152.696,73.996C154.522,69.298 154.363,65.042 152.719,61.961C151.027,58.789 147.77,56.788 143.31,56.788ZM143.31,57.788C151.376,57.788 155.164,64.888 151.764,73.634C148.364,82.38 139.056,89.48 130.99,89.48C122.924,89.48 119.136,82.38 122.536,73.634C125.936,64.888 135.244,57.788 143.31,57.788Z" style="fill:rgb(77,77,77);"/>
</svg>
