<?xml version="1.0" encoding="UTF-8" standalone="no"?>
<!DOCTYPE svg PUBLIC "-//W3C//DTD SVG 1.1//EN" "http://www.w3.org/Graphics/SVG/1.1/DTD/svg11.dtd">
<svg width="100%" height="100%" viewBox="0 0 358 209" version="1.1" xmlns="http://www.w3.org/2000/svg" xmlns:xlink="http://www.w3.org/1999/xlink" xml:space="preserve" xmlns:serif="http://www.serif.com/" style="fill-rule:evenodd;clip-rule:evenodd;stroke-linejoin:round;stroke-miterlimit:2;">
    <g transform="matrix(1,0,0,1,-415.174,-136.101)">
        <g id="logo" transform="matrix(0.794221,0,0,0.693633,113.37,73.6743)">
            <rect x="380" y="90" width="450" height="300" style="fill:none;"/>
            <g transform="matrix(1.2591,0,0,1.44169,-142.744,-106.215)">
                <path d="M472.004,260C470.69,253.539 470,246.849 470,240C470,184.808 514.808,140 570,140C625.192,140 670,184.808 670,240C670,246.849 669.31,253.539 667.996,260L472.004,260Z" style="fill:rgb(7,80,37);"/>
                <clipPath id="_clip1">
                    <path d="M472.004,260C470.69,253.539 470,246.849 470,240C470,184.808 514.808,140 570,140C625.192,140 670,184.808 670,240C670,246.849 669.31,253.539 667.996,260L472.004,260Z"/>
                </clipPath>
                <g clip-path="url(#_clip1)">
                    <g transform="matrix(1,0,0,1,-0.338608,0)">
                        <g>
                            <g transform="matrix(1,0,0,1,-21.2356,0)">
                                <circle cx="520" cy="220" r="20"/>
                            </g>
                            <g transform="matrix(1,0,0,1,121.236,0)">
                                <circle cx="520" cy="220" r="20"/>
                            </g>
                            <g transform="matrix(1,0,0,1,73.7452,0)">
                                <circle cx="520" cy="220" r="20"/>
                            </g>
                            <g transform="matrix(1,0,0,1,26.2548,0)">
                                <circle cx="520" cy="220" r="20"/>
                            </g>
                        </g>
                        <g transform="matrix(1,0,0,1,2.7548,0)">
                            <g transform="matrix(1,0,-0.31274,1,70.0576,-40.9485)">
                                <circle cx="520" cy="220" r="20"/>
                            </g>
                            <g transform="matrix(-1,0,0.31274,1,1064.43,-40.9485)">
                                <circle cx="520" cy="220" r="20"/>
                            </g>
                        </g>
                        <g transform="matrix(2.025,0,0,1,-483,-85.8024)">
                            <circle cx="520" cy="220" r="20"/>
                        </g>
                        <g transform="matrix(1,0,0,1,50,-40.9485)">
                            <circle cx="520" cy="220" r="20"/>
                        </g>
                    </g>
                </g>
            </g>
            <g transform="matrix(1.2591,0,0,1.44169,-145.262,-113.424)">
                <path d="M690,253.88C690,251.739 688.261,250 686.12,250L463.88,250C461.739,250 460,251.739 460,253.88L460,261.64C460,263.781 461.739,265.52 463.88,265.52L686.12,265.52C688.261,265.52 690,263.781 690,261.64L690,253.88Z"/>
            </g>
            <g transform="matrix(1.2591,0,0,1.44169,-142.744,-106.215)">
                <path d="M649.985,300C631.733,324.283 602.687,340 570,340C523.661,340 466.875,310.516 420,265.617L620,265.617L620,265.52L749.195,265.52C758.71,265.52 766.435,273.245 766.435,282.76L766.435,317.24C766.435,326.755 758.71,334.48 749.195,334.48L683.675,334.48C674.16,334.48 666.435,326.755 666.435,317.24L666.435,300L649.985,300Z" style="fill:rgb(0,152,62);"/>
            </g>
            <g transform="matrix(0.893941,0,0,1.44169,97.271,-110.194)">
                <path d="M759.698,302.76C757.263,312.472 740.405,320 720,320C699.595,320 682.737,312.472 680.302,302.76L759.698,302.76Z" style="fill:rgb(7,80,37);"/>
            </g>
            <g transform="matrix(1.2591,0,0.167121,1.44169,-166.888,-108.804)">
                <circle cx="693.348" cy="282.464" r="12.536" style="fill:white;"/>
            </g>
            <g transform="matrix(1.2591,0,0.167121,1.44169,-194.439,-108.804)">
                <circle cx="693.348" cy="282.464" r="12.536" style="fill:white;"/>
            </g>
            <g transform="matrix(1.2591,0,0,1.44169,-115.069,-108.804)">
                <circle cx="693.348" cy="282.464" r="7.536"/>
            </g>
            <g transform="matrix(1.2591,0,0,1.44169,-142.864,-108.804)">
                <circle cx="693.348" cy="282.464" r="7.536"/>
            </g>
            <g transform="matrix(1.2591,0,0,1.44169,-142.744,-106.215)">
                <circle cx="752" cy="278" r="4" style="fill:rgb(7,80,37);"/>
            </g>
        </g>
    </g>
</svg>
