<?xml version="1.0" encoding="UTF-8" standalone="no"?>
<!DOCTYPE svg PUBLIC "-//W3C//DTD SVG 1.1//EN" "http://www.w3.org/Graphics/SVG/1.1/DTD/svg11.dtd">
<svg width="118px" height="90px" version="1.1" xmlns="http://www.w3.org/2000/svg" xmlns:xlink="http://www.w3.org/1999/xlink" xml:space="preserve" xmlns:serif="http://www.serif.com/" style="fill-rule:evenodd;clip-rule:evenodd;stroke-linejoin:round;stroke-miterlimit:2;">
    <rect id="publisher-icon" x="-0" y="0" width="117.625" height="89.741" style="fill:none;"/>
    <path d="M75.823,3.791L5.823,23.917L5.823,64.169L75.823,44.043L75.823,3.791Z" style="fill:rgb(13,168,0);"/>
    <path d="M113.664,25.441L43.664,45.567L43.664,85.82L113.664,65.693L113.664,25.441Z" style="fill:rgb(13,168,0);"/>
    <path d="M92.823,38.584L49.04,51.172L49.04,76.349L92.823,63.761L92.823,38.584Z" style="fill:white;"/>
    <path d="M93.823,64.514L93.823,37.256L48.04,50.419L48.04,77.677L93.823,64.514ZM92.823,38.584L49.04,51.172L49.04,76.349L92.823,63.761L92.823,38.584Z" style="fill:rgb(5,5,5);"/>
    <path d="M43.664,86.549L5.823,64.169L5.823,23.917L43.664,46.549L43.664,86.549Z" style="fill:rgb(77,77,77);"/>
    <path d="M75.823,3.791L113.664,26.549L43.664,46.549L5.823,23.917L75.823,3.791Z" style="fill:rgb(255,142,142);"/>
    <path d="M25.596,20.609C29.148,19.633 34.152,20.8 36.764,23.213C39.376,25.627 38.614,28.379 35.062,29.355C31.511,30.331 26.507,29.164 23.894,26.75C21.282,24.337 22.045,21.585 25.596,20.609Z" style="fill:rgb(255,0,0);"/>
    <path d="M25.331,19.644C23.125,20.251 21.853,21.492 21.47,22.873C21.08,24.281 21.562,25.957 23.216,27.485C26.049,30.103 31.475,31.378 35.327,30.319C37.534,29.713 38.805,28.472 39.188,27.09C39.578,25.683 39.096,24.007 37.443,22.479C34.609,19.861 29.183,18.586 25.331,19.644L25.331,19.644ZM25.596,20.609C29.148,19.633 34.152,20.8 36.764,23.213C39.376,25.627 38.614,28.379 35.062,29.355C31.511,30.331 26.507,29.164 23.894,26.75C21.282,24.337 22.045,21.585 25.596,20.609Z"/>
    <path d="M43.115,31.458C46.666,30.482 51.67,31.649 54.283,34.062C56.895,36.476 56.132,39.228 52.581,40.204C49.029,41.18 44.025,40.013 41.413,37.599C38.801,35.186 39.563,32.434 43.115,31.458Z" style="fill:rgb(255,0,0);"/>
    <path d="M42.85,30.493C40.644,31.1 39.372,32.341 38.989,33.722C38.599,35.13 39.081,36.806 40.734,38.334C43.568,40.952 48.994,42.227 52.846,41.168C55.052,40.562 56.324,39.321 56.707,37.939C57.097,36.532 56.615,34.856 54.961,33.328C52.128,30.71 46.702,29.435 42.85,30.493L42.85,30.493ZM43.115,31.458C46.666,30.482 51.67,31.649 54.283,34.062C56.895,36.476 56.132,39.228 52.581,40.204C49.029,41.18 44.025,40.013 41.413,37.599C38.801,35.186 39.563,32.434 43.115,31.458Z"/>
    <path d="M45.09,15.251C48.642,14.275 53.646,15.442 56.258,17.856C58.87,20.27 58.108,23.022 54.556,23.998C51.005,24.974 46.001,23.806 43.389,21.393C40.776,18.979 41.539,16.227 45.09,15.251Z" style="fill:rgb(255,0,0);"/>
    <path d="M44.825,14.287C42.619,14.893 41.347,16.134 40.964,17.516C40.574,18.923 41.056,20.599 42.71,22.127C45.543,24.745 50.969,26.02 54.821,24.962C57.028,24.355 58.3,23.114 58.682,21.733C59.072,20.325 58.591,18.649 56.937,17.121C54.103,14.503 48.678,13.228 44.825,14.287L44.825,14.287ZM45.09,15.251C48.642,14.275 53.646,15.442 56.258,17.856C58.87,20.27 58.108,23.022 54.556,23.998C51.005,24.974 46.001,23.806 43.389,21.393C40.776,18.979 41.539,16.227 45.09,15.251Z"/>
    <path d="M62.609,26.1C66.161,25.124 71.165,26.291 73.777,28.705C76.389,31.119 75.627,33.871 72.075,34.847C68.524,35.823 63.52,34.655 60.907,32.242C58.295,29.828 59.058,27.076 62.609,26.1Z" style="fill:rgb(255,0,0);"/>
    <path d="M62.344,25.136C60.138,25.742 58.866,26.983 58.483,28.365C58.093,29.772 58.575,31.448 60.229,32.976C63.062,35.594 68.488,36.869 72.34,35.811C74.546,35.204 75.818,33.963 76.201,32.582C76.591,31.174 76.109,29.498 74.456,27.97C71.622,25.352 66.196,24.077 62.344,25.136L62.344,25.136ZM62.609,26.1C66.161,25.124 71.165,26.291 73.777,28.705C76.389,31.119 75.627,33.871 72.075,34.847C68.524,35.823 63.52,34.655 60.907,32.242C58.295,29.828 59.058,27.076 62.609,26.1Z"/>
    <path d="M64.585,9.894C68.136,8.918 73.14,10.085 75.752,12.498C78.365,14.912 77.602,17.664 74.051,18.64C70.499,19.616 65.495,18.449 62.883,16.035C60.271,13.622 61.033,10.87 64.585,9.894Z" style="fill:rgb(255,0,0);"/>
    <path d="M64.32,8.929C62.113,9.536 60.841,10.777 60.459,12.158C60.069,13.566 60.55,15.242 62.204,16.77C65.038,19.388 70.463,20.663 74.316,19.604C76.522,18.998 77.794,17.757 78.177,16.375C78.567,14.968 78.085,13.292 76.431,11.764C73.598,9.146 68.172,7.871 64.32,8.929ZM64.585,9.894C68.136,8.918 73.14,10.085 75.752,12.498C78.365,14.912 77.602,17.664 74.051,18.64C70.499,19.616 65.495,18.449 62.883,16.035C60.271,13.622 61.033,10.87 64.585,9.894Z"/>
    <path d="M82.103,20.743C85.655,19.767 90.659,20.934 93.271,23.347C95.883,25.761 95.121,28.513 91.569,29.489C88.018,30.465 83.014,29.298 80.402,26.884C77.789,24.471 78.552,21.719 82.103,20.743Z" style="fill:rgb(255,0,0);"/>
    <path d="M81.838,19.778C79.632,20.385 78.36,21.626 77.977,23.007C77.587,24.415 78.069,26.091 79.723,27.619C82.556,30.237 87.982,31.512 91.834,30.453C94.041,29.847 95.313,28.606 95.695,27.224C96.085,25.817 95.604,24.141 93.95,22.613C91.116,19.995 85.691,18.72 81.838,19.778L81.838,19.778ZM82.103,20.743C85.655,19.767 90.659,20.934 93.271,23.347C95.883,25.761 95.121,28.513 91.569,29.489C88.018,30.465 83.014,29.298 80.402,26.884C77.789,24.471 78.552,21.719 82.103,20.743Z"/>
</svg>
